<svg height="1024" viewBox="0 0 1024 1024" width="1024" xmlns="http://www.w3.org/2000/svg"><path d="m0 0h1024v1024h-1024z" fill="#fff"/><path d="m499.957 139.49 133.524-.001 54.642-.079c13.398-.032 27.8-.431 41.032 1.068 39.506 4.612 76.317 22.364 104.524 50.406 28.218 27.742 46.391 64.093 51.649 103.314 1.522 11.689 1.62 22.773 1.651 34.551l.141 252.623-.043 72.344c.003 23.64 1.022 50.831-4.329 73.717-8.065 33.044-25.059 63.236-49.125 87.273-28.91 28.612-66.788 46.398-107.268 50.368-15.143 1.444-34.684.878-50.16.873l-175.888-.003-108.026-.001c-19.793-.003-39.595-.001-59.39-.074-47.494-.176-93.325-20.644-126.145-55.158-27.206-28.242-44.28-64.707-48.551-103.688-1.048-9.999-.84-21.221-.823-31.378.018-10.786-.149-21.981.155-32.733l-.02-.618c-.605-24.054-.151-49.877-.155-74.069l-.019-138.053-.055-72.983c-.096-26.205-1.781-53.91 4.334-79.283 8.009-33.234 23.562-60.142 46.953-84.743 29.483-30.424 68.992-49.132 111.21-52.661 8.625-.73 18.017-.583 26.712-.601l37.161-.061c38.114-.084 78.473.594 116.309-.35z" fill="#2b2b2e"/><path d="m157.527 642.912-.02-.618c-.605-24.054-.151-49.877-.155-74.069l-.019-138.053-.055-72.983c-.096-26.205-1.781-53.91 4.334-79.283 8.009-33.234 23.562-60.142 46.953-84.743 29.483-30.424 68.992-49.132 111.21-52.661 8.625-.73 18.017-.583 26.712-.601l37.161-.061c38.114-.084 78.473.594 116.309-.35.038 21.704-.531 46.547.122 68.004.175 19.297.831 187.585-.45 190.817l.785 1.216-.107 466.417-108.026-.001c-19.793-.003-39.595-.001-59.39-.074-47.494-.176-93.325-20.644-126.145-55.158-27.206-28.242-44.28-64.707-48.551-103.688-1.048-9.999-.84-21.221-.823-31.378.018-10.786-.149-21.981.155-32.733z" fill="#00bcd4"/><path d="m499.629 398.311.785 1.216-.107 466.417-108.026-.001c-19.793-.003-39.595-.001-59.39-.074-47.494-.176-93.325-20.644-126.145-55.158-27.206-28.242-44.28-64.707-48.551-103.688-1.048-9.999-.84-21.221-.823-31.378.018-10.786-.149-21.981.155-32.733 2.783-3.422 6.77-9.48 9.436-13.243 5.681-8.081 11.479-16.079 17.393-23.992 35.445-47.598 69.912-97.032 105.747-144.096 5.998 7.347 16.844 25.181 22.512 33.725 18.078 27.251 38.063 55.697 54.9 83.547 3.325-3.872 8.766-11.949 11.973-16.336 7.748-10.425 15.422-20.906 23.023-31.439 21.46-29.954 43.119-59.764 64.975-89.429l19.429-27.066c3.091-4.256 9.105-12.656 12.714-16.272z" fill="#b4d62e"/><path d="m346.6 275.261c32.86-.455 59.941 25.669 60.669 58.524.727 32.855-25.171 60.152-58.018 61.153-33.236 1.012-60.927-25.259-61.663-58.502s25.764-60.715 59.012-61.175z" fill="#b4d62e"/><path d="m500.079 207.494 145.581-.033 43.577.016c15.875.019 30.778-.733 46.483 3.034 45.827 10.993 80.622 53.192 81.786 100.446.388 15.75.087 31.869.076 47.691l.1 115.348c.1 25.883.562 52.593.05 78.432-5.596-7.659-10.378-15.163-15.744-22.846l-45.398-65.832c-7.967-11.641-15.676-23.306-24.115-34.642l-53.62 71.843c-18.711 24.792-37.156 49.783-55.333 74.969l-86.058-123.354-24.219-35.196c-3.207-4.63-9.496-14.197-12.831-17.843l-.785-1.216c1.281-3.232.625-171.52.45-190.817z" fill="#fff"/><path d="m618.52 313.541c26.573-3.644 51.073 14.935 54.731 41.507 3.659 26.571-14.908 51.08-41.477 54.753-26.59 3.675-51.121-14.908-54.782-41.5-3.661-26.591 14.935-51.112 41.528-54.76z" fill="#2b2b2e"/></svg>